<svg xmlns="http://www.w3.org/2000/svg"  viewBox="0 0 48 48" width="48px" height="48px" baseProfile="basic"><circle cx="24" cy="24" r="19.25" fill="#52cccc" opacity=".15"/><polygon fill="#52cccc" points="30.643,18.857 30,16.5 24,22.5 18,16.5 17.531,19.031 22.5,24 17.36,29.14 18,31.5 24,25.5 30,31.5 30.804,29.304 25.5,24" opacity=".8"/><path fill="#52cccc" d="M24,39.125C15.66,39.125,8.875,32.34,8.875,24S15.66,8.875,24,8.875S39.125,15.66,39.125,24	S32.34,39.125,24,39.125z M24,9.125C15.798,9.125,9.125,15.798,9.125,24S15.798,38.875,24,38.875S38.875,32.202,38.875,24	S32.202,9.125,24,9.125z M44.184,20.535l-1.128-0.643c-0.859-3.986-2.946-7.51-5.836-10.185v-1.35C33.647,5.333,29.036,3.5,24,3.5	c-4.988,0-9.562,1.794-13.12,4.767v1.35c-2.891,2.64-4.988,6.126-5.884,10.073l-1.151,0.657C3.63,21.534,3.5,22.751,3.5,24	c0,8.815,5.603,16.326,13.427,19.216l1.195-0.626c1.856,0.588,3.83,0.91,5.879,0.91c1.968,0,3.867-0.299,5.659-0.844l1.223,0.63	C38.806,40.449,44.5,32.887,44.5,24C44.5,22.817,44.377,21.664,44.184,20.535z M5,24C5,13.523,13.523,5,24,5s19,8.523,19,19	s-8.523,19-19,19S5,34.477,5,24z"/><path fill="#52cccc" d="M23.188,41.963l-0.5-0.029l0.117-1.998l0.5,0.029L23.188,41.963z M22.128,39.875	l-0.496-0.066l-0.265,1.982l0.496,0.066L22.128,39.875z M20.957,39.708l-0.489-0.103l-0.41,1.958l0.489,0.103L20.957,39.708z M19.809,39.431l-0.48-0.139l-0.555,1.922l0.48,0.139L19.809,39.431z M18.684,39.072l-0.469-0.174l-0.696,1.875l0.469,0.174	L18.684,39.072z M17.585,38.642l-0.454-0.208l-0.833,1.817l0.454,0.208L17.585,38.642z M16.517,38.137l-0.438-0.242l-0.967,1.751	l0.438,0.242L16.517,38.137z M15.497,37.537l-0.419-0.272l-1.092,1.676l0.419,0.272L15.497,37.537z M14.526,36.865l-0.397-0.304	l-1.213,1.59l0.397,0.304L14.526,36.865z M13.602,36.129l-0.374-0.331l-1.326,1.497l0.374,0.331L13.602,36.129z M12.728,35.334	l-0.349-0.358l-1.433,1.396l0.349,0.358L12.728,35.334z M11.919,34.471l-0.322-0.383l-1.531,1.288l0.322,0.383L11.919,34.471z M11.185,33.543l-0.293-0.404l-1.62,1.172l0.293,0.404L11.185,33.543z M10.516,32.571l-0.262-0.426l-1.703,1.049l0.262,0.426	L10.516,32.571z M9.911,31.556l-0.23-0.443l-1.774,0.921l0.23,0.443L9.911,31.556z M9.381,30.5l-0.196-0.46l-1.839,0.786l0.196,0.46	L9.381,30.5z M8.952,29.398L8.79,28.926l-1.892,0.647l0.162,0.473L8.952,29.398z M8.599,28.272l-0.126-0.483l-1.935,0.505	l0.126,0.483L8.599,28.272z M8.319,27.126l-0.09-0.492l-1.968,0.359l0.09,0.492L8.319,27.126z M8.122,25.96l-0.054-0.497	l-1.989,0.213l0.054,0.497L8.122,25.96z M8.036,24.782l-0.016-0.5l-1.999,0.064l0.016,0.5L8.036,24.782z M8.044,23.1l-1.999-0.079	l-0.02,0.5L8.024,23.6L8.044,23.1z M8.141,21.923l-1.986-0.227l-0.057,0.496l1.986,0.227L8.141,21.923z M8.338,20.759l-1.963-0.375	l-0.094,0.49l1.963,0.375L8.338,20.759z M8.63,19.613l-1.932-0.52l-0.13,0.483l1.932,0.52L8.63,19.613z M8.995,18.491L7.107,17.83	l-0.165,0.472l1.888,0.661L8.995,18.491z M9.435,17.396l-1.833-0.801l-0.2,0.458l1.833,0.801L9.435,17.396z M9.965,16.339	l-1.77-0.934l-0.233,0.442l1.77,0.934L9.965,16.339z M10.578,15.329l-1.694-1.062l-0.266,0.424l1.694,1.062L10.578,15.329z M11.258,14.362l-1.612-1.184L9.35,13.582l1.612,1.184L11.258,14.362z M12,13.442l-1.522-1.298l-0.324,0.381l1.522,1.298L12,13.442z M12.809,12.58l-1.422-1.406l-0.352,0.355l1.422,1.406L12.809,12.58z M13.69,11.793l-1.315-1.507l-0.376,0.328l1.315,1.507	L13.69,11.793z M14.622,11.065l-1.201-1.599l-0.399,0.3l1.201,1.599L14.622,11.065z M15.6,10.402l-1.08-1.684l-0.421,0.271	l1.08,1.684L15.6,10.402z M16.619,9.806l-0.953-1.759l-0.439,0.238l0.953,1.759L16.619,9.806z M17.692,9.309l-0.82-1.823	L16.417,7.69l0.82,1.823L17.692,9.309z M18.796,8.888l-0.683-1.88l-0.47,0.171l0.683,1.88L18.796,8.888z M19.924,8.541l-0.541-1.926	l-0.481,0.136l0.541,1.926L19.924,8.541z M21.073,8.269l-0.396-1.961l-0.49,0.1l0.396,1.961L21.073,8.269z M22.244,8.109	l-0.249-1.984l-0.496,0.063l0.249,1.984L22.244,8.109z M23.423,8.03l-0.104-1.997L22.82,6.06l0.104,1.997L23.423,8.03z M24.648,6.025l-0.5-0.012l-0.045,1.999l0.5,0.012L24.648,6.025z M25.975,6.11l-0.498-0.047l-0.189,1.991l0.498,0.047L25.975,6.11z M27.289,6.318l-0.493-0.084l-0.337,1.971l0.492,0.084L27.289,6.318z M28.585,6.61L28.1,6.49l-0.482,1.941l0.485,0.12L28.585,6.61z M29.859,6.989l-0.475-0.156l-0.626,1.899l0.475,0.156L29.859,6.989z M31.103,7.465l-0.462-0.19l-0.767,1.847l0.462,0.192	L31.103,7.465z M32.298,8.047l-0.446-0.226L30.95,9.607l0.446,0.226L32.298,8.047z M33.451,8.707l-0.428-0.258l-1.031,1.714	l0.428,0.258L33.451,8.707z M34.558,9.443l-0.408-0.289l-1.154,1.633l0.408,0.289L34.558,9.443z M35.609,10.254l-0.386-0.317	l-1.27,1.545l0.386,0.317L35.609,10.254z M36.584,11.158l-0.362-0.345l-1.38,1.448l0.362,0.345L36.584,11.158z M37.495,12.126	l-0.336-0.371l-1.483,1.343l0.336,0.371L37.495,12.126z M38.338,13.151l-0.308-0.394l-1.576,1.23l0.308,0.394L38.338,13.151z M39.111,14.233l-0.277-0.416l-1.663,1.11l0.277,0.416L39.111,14.233z M39.787,15.379l-0.246-0.436L37.8,15.929l0.246,0.436	L39.787,15.379z M40.375,16.57l-0.214-0.452l-1.809,0.854l0.214,0.452L40.375,16.57z M40.882,17.799l-0.18-0.467l-1.867,0.718	l0.18,0.467L40.882,17.799z M41.305,19.06l-0.145-0.479l-1.915,0.577l0.145,0.479L41.305,19.06z M41.619,20.354l-0.107-0.488	l-1.953,0.432l0.107,0.488L41.619,20.354z M41.83,21.666l-0.071-0.495l-1.979,0.286l0.071,0.495L41.83,21.666z M41.954,22.988	l-0.034-0.499l-1.995,0.139l0.034,0.499L41.954,22.988z M41.998,23.816l-2-0.008l-0.002,0.5l2,0.008L41.998,23.816z M41.949,25.145	l-1.994-0.153l-0.038,0.499l1.994,0.153L41.949,25.145z M41.813,26.466l-1.979-0.301l-0.075,0.495l1.979,0.301L41.813,26.466z M41.588,27.776l-1.949-0.447l-0.112,0.487l1.949,0.447L41.588,27.776z M41.272,29.069l-1.91-0.591l-0.147,0.478l1.91,0.591	L41.272,29.069z M40.837,30.326l-1.861-0.731l-0.183,0.466l1.861,0.731L40.837,30.326z M40.319,31.55l-1.803-0.867L38.3,31.134	l1.803,0.867L40.319,31.55z M39.72,32.736l-1.733-0.999l-0.25,0.434l1.733,0.999L39.72,32.736z M39.041,33.88l-1.655-1.124	l-0.281,0.414l1.655,1.124L39.041,33.88z M38.26,34.955l-1.568-1.242l-0.311,0.393l1.568,1.242L38.26,34.955z M37.406,35.974	l-1.472-1.354l-0.339,0.368l1.472,1.354L37.406,35.974z M36.487,36.932l-1.37-1.457l-0.364,0.343l1.37,1.457L36.487,36.932z M35.505,37.827l-1.259-1.554l-0.389,0.314l1.259,1.554L35.505,37.827z M34.451,38.639l-1.142-1.643l-0.41,0.285l1.142,1.643	L34.451,38.639z M33.339,39.364l-1.019-1.723l-0.431,0.255l1.019,1.723L33.339,39.364z M32.179,40.013l-0.887-1.792l-0.448,0.222	l0.887,1.792L32.179,40.013z M30.979,40.583l-0.753-1.854l-0.464,0.188l0.753,1.854L30.979,40.583z M29.735,41.058l-0.613-1.903	l-0.476,0.153l0.613,1.903L29.735,41.058z M28.457,41.424l-0.469-1.944l-0.486,0.117l0.469,1.944L28.457,41.424z M27.157,41.703	l-0.323-1.974l-0.493,0.081l0.323,1.974L27.157,41.703z M25.843,41.898l-0.176-1.993l-0.499,0.044l0.176,1.993L25.843,41.898z M24.516,41.983l-0.029-2l-0.5,0.008l0.029,2L24.516,41.983z" opacity=".8"/></svg>